<?xml version="1.0"?>
<svg xmlns="http://www.w3.org/2000/svg" height="512px" viewBox="-4 0 512 512.00029" width="512px"><path d="m225.628906 26.035156c0 14.378906 11.652344 26.03125 26.03125 26.03125s26.035156-11.652344 26.035156-26.03125-11.65625-26.035156-26.035156-26.035156c-6.914062-.03125-13.554687 2.699219-18.445312 7.589844-4.886719 4.890625-7.621094 11.53125-7.585938 18.445312zm0 0" fill="#006DF0"/><path d="m234.304688 130.167969h34.710937v104.136719h-34.710937zm0 0" fill="#006DF0"/><path d="m234.304688 251.660156h34.710937c9.585937 0 17.355469 7.773438 17.355469 17.355469v43.390625c0 9.585938-7.769532 17.355469-17.355469 17.355469h-34.710937c-9.585938 0-17.355469-7.769531-17.355469-17.355469v-43.390625c0-9.582031 7.769531-17.355469 17.355469-17.355469zm0 0" fill="#006DF0"/><path d="m227.457031 378.777344c-1.1875 1.945312-1.820312 4.183594-1.828125 6.464844v39.976562h52.066406v-39.976562c-.011718-2.28125-.644531-4.519532-1.832031-6.464844l-24.203125-40.335938zm0 0" fill="#006DF0"/><path d="m364.476562 485.964844h-225.628906c-9.585937 0-17.355468 7.773437-17.355468 17.359375v8.675781h260.339843v-8.675781c0-9.585938-7.773437-17.359375-17.355469-17.359375zm0 0" fill="#006DF0"/><path d="m182.238281 459.933594v8.675781h138.847657v-8.675781c0-9.585938-7.773438-17.355469-17.355469-17.355469h-104.136719c-9.585938 0-17.355469 7.769531-17.355469 17.355469zm0 0" fill="#006DF0"/><path d="m502.992188 292.664062-33.636719-117.714843 8.453125-3.386719c8.257812-3.226562 13.695312-11.179688 13.710937-20.046875-.015625-1.453125-.160156-2.90625-.433593-4.335937-1.261719-6.34375-5.277344-11.800782-10.964844-14.882813-5.683594-3.085937-12.445313-3.484375-18.453125-1.085937l-19.089844 7.636718c-12.179687-14.953125-27.304687-27.238281-44.433594-36.101562-20.734375-11.105469-42.894531-19.3125-65.863281-24.382813-26.449219-6.015625-53.496094-9.015625-80.621094-8.9375-5.898437 0-11.628906.171875-17.355468.433594-21.304688.863281-42.484376 3.710937-63.261719 8.503906-22.96875 5.070313-45.132813 13.277344-65.867188 24.382813-17.128906 8.863281-32.25 21.148437-44.429687 36.101562l-19.089844-7.636718c-6.007812-2.398438-12.769531-2-18.457031 1.085937-5.683594 3.082031-9.703125 8.539063-10.964844 14.882813-.273437 1.429687-.417969 2.882812-.433594 4.335937.015625 8.867187 5.457031 16.820313 13.710938 20.046875l8.453125 3.386719-33.636719 117.714843c-.171875.785157-.2382812 1.585938-.1875 2.386719h-.140625v17.355469c0 9.585938 7.769531 17.355469 17.355469 17.355469h60.746093c9.585938 0 17.355469-7.769531 17.355469-17.355469v-17.355469h-.136719c.046876-.800781-.015624-1.601562-.191406-2.386719l-33.84375-118.425781c49.925782-37.832031 110.40625-59.152343 173.019532-60.992187 5.640624-.257813 11.457031-.433594 17.355468-.433594 102.84375 0 167.667969 43.269531 190.371094 61.433594l-33.84375 118.417968c-.175781.785157-.242188 1.585938-.191406 2.386719h-.132813v17.355469c0 9.585938 7.773438 17.355469 17.355469 17.355469h60.746094c9.585937 0 17.355468-7.769531 17.355468-17.355469v-17.355469h-.136718c.046875-.800781-.015625-1.601562-.191406-2.386719zm-485.289063 2.386719 30.027344-105.074219 30.023437 105.074219zm437.890625-105.074219 30.023438 105.074219h-60.050782zm0 0" fill="#006DF0"/></svg>
