<?xml version="1.0"?>
<svg xmlns="http://www.w3.org/2000/svg" height="512px" viewBox="0 0 512.01605 512" width="512px"><path d="m36.570312 265.152344h36.574219v27.425781h-36.574219zm0 0" fill="#006DF0"/><path d="m36.570312 219.4375h36.574219v27.425781h-36.574219zm0 0" fill="#006DF0"/><path d="m36.570312 173.722656h36.574219v27.429688h-36.574219zm0 0" fill="#006DF0"/><path d="m36.570312 310.863281h36.574219v27.429688h-36.574219zm0 0" fill="#006DF0"/><path d="m36.570312 128.007812h36.574219v27.429688h-36.574219zm0 0" fill="#006DF0"/><path d="m91.429688 36.578125h201.140624v27.429687h-201.140624zm0 0" fill="#006DF0"/><path d="m36.570312 356.578125h36.574219v27.429687h-36.574219zm0 0" fill="#006DF0"/><path d="m36.570312 402.292969h36.574219v36.570312h-36.574219zm0 0" fill="#006DF0"/><path d="m91.429688 82.292969h201.140624v27.429687h-201.140624zm0 0" fill="#006DF0"/><path d="m201.144531 365.722656c-25.527343.042969-49.183593 13.386719-62.421875 35.207032l-2.4375 5.230468c-.410156.859375-.949218 1.648438-1.601562 2.339844-13.449219 29.515625-5.839844 64.363281 18.6875 85.582031 24.527344 21.222657 60.105468 23.738281 87.378906 6.183594s39.714844-50.980469 30.554688-82.09375c-9.160157-31.113281-37.726563-52.472656-70.160157-52.449219zm0 36.570313c-20.199219 0-36.574219 16.375-36.574219 36.570312 0 5.050781-4.09375 9.144531-9.140624 9.144531-5.050782 0-9.144532-4.09375-9.144532-9.144531.03125-30.28125 24.574219-54.824219 54.859375-54.855469 5.046875 0 9.140625 4.09375 9.140625 9.144532 0 5.046875-4.09375 9.140625-9.140625 9.140625zm0 0" fill="#006DF0"/><path d="m329.144531 246.863281h-18.289062v45.714844c-.019531 3.445313-1.988281 6.578125-5.082031 8.09375l-.082032.054687c-.800781.355469-1.652344.59375-2.523437.703126-.300781.105468-.605469.195312-.914063.265624h-.695312c-4.796875.011719-8.789063-3.683593-9.144532-8.464843-1.265624-16.191407-10.242187-30.78125-24.117187-39.214844-.636719-.355469-1.226563-.789063-1.753906-1.289063-.308594-.285156-.589844-.589843-.851563-.914062-.414062-.496094-.773437-1.03125-1.078125-1.601562-.199219-.382813-.371093-.78125-.511719-1.1875-.253906-.730469-.40625-1.488282-.457031-2.257813 0-.238281-.148437-.449219-.148437-.703125 0-5.050781 4.09375-9.144531 9.144531-9.144531 1.113281.027343 2.214844.25 3.253906.65625.207031.074219.40625.160156.605469.257812.3125.113281.617188.246094.914062.402344 5.621094 3.40625 10.722657 7.601563 15.15625 12.453125v-40.394531c0-15.148438-12.277343-27.429688-27.425781-27.429688-15.148437 0-27.429687 12.28125-27.429687 27.429688v26.652343c0 .109376.109375.183594.136718.292969.546876 2.367188.128907 4.851563-1.160156 6.910157-1.289062 2.058593-3.347656 3.519531-5.714844 4.0625-13.222656 3.066406-24.640624 11.351562-31.664062 22.964843l-40.472656 86.730469c43.976562-23.113281 98.359375-6.769531 122.3125 36.753906l11.601562-58.195312c.542969-3.296875 2.839844-6.035156 5.992188-7.144532 3.152344-1.105468 6.660156-.402343 9.144531 1.832032s3.550781 5.644531 2.785156 8.898437l-11.824219 59.152344c12.929688-8.121094 29.367188-8.121094 42.296876 0l-11.824219-59.082031c-.765625-3.25.300781-6.664063 2.785156-8.898438s5.992187-2.933594 9.144531-1.828125c3.152344 1.109375 5.449219 3.847657 5.992188 7.144531l11.636718 58.15625c23.953126-43.523437 78.339844-59.863281 122.316407-36.753906l-40.449219-86.683594c-6.984375-11.546874-18.300781-19.816406-31.425781-22.957031-.238281-.09375-.46875-.199219-.695313-.320312-.585937-.191407-1.152344-.453125-1.679687-.777344-.496094-.253906-.964844-.5625-1.398438-.914063-.441406-.382812-.839843-.8125-1.191406-1.28125-.34375-.445312-.652344-.921874-.914063-1.425781-.253906-.507812-.453124-1.039062-.601562-1.589843-.183594-.59375-.304688-1.207032-.355469-1.828126-.082031-.261718-.148437-.527343-.203125-.796874v-29.074219c0-15.148438-12.28125-27.429688-27.429687-27.429688-15.148438 0-27.425781 12.28125-27.425781 27.429688v40.394531c4.417968-4.855469 9.511718-9.058594 15.121093-12.472656.246094-.121094.5-.230469.757813-.328125.277344-.128907.53125-.246094.816406-.347657 1-.398437 2.066406-.613281 3.144531-.640624 5.046875 0 9.140625 4.09375 9.140625 9.144531-.019531 1.09375-.234375 2.175781-.640625 3.191406-.101562.273437-.222656.542969-.363281.804687-.359375.738282-.816406 1.425782-1.363281 2.039063-.164063.179687-.292969.382813-.464844.554687-.675781.664063-1.449219 1.222657-2.296875 1.648438-13.679688 8.460938-22.511719 22.9375-23.769531 38.976562-.355469 4.78125-4.347657 8.476563-9.144531 8.464844h-.695313c-.308594-.070312-.613281-.160156-.914063-.265625-.871093-.109375-1.71875-.347656-2.523437-.703125l-.082031-.066406c-3.070313-1.535156-5.011719-4.671875-5.007813-8.109375zm0 0" fill="#006DF0"/><path d="m36.570312 82.292969h36.574219v27.429687h-36.574219zm0 0" fill="#006DF0"/><path d="m9.144531 475.4375h108.257813c-11.816406-26.839844-9.925782-57.738281 5.074218-82.9375l55.359376-118.636719c1.355468-3.847656 3.085937-7.550781 5.167968-11.0625l.710938-1.515625c.492187-1.011718 1.164062-1.921875 1.984375-2.691406 8.203125-12.027344 20.011719-21.136719 33.730469-26.019531v-22.28125c0-25.246094 20.464843-45.714844 45.714843-45.714844 25.246094 0 45.710938 20.46875 45.710938 45.714844v18.285156h18.289062v-219.425781c0-5.050782-4.09375-9.1445315-9.144531-9.1445315h-310.855469c-5.050781 0-9.144531 4.0937495-9.144531 9.1445315v457.140625c0 5.050781 4.09375 9.144531 9.144531 9.144531zm9.140625-448c0-5.050781 4.09375-9.144531 9.144532-9.144531h274.285156c5.050781 0 9.140625 4.09375 9.140625 9.144531v109.714844c0 5.046875-4.089844 9.140625-9.140625 9.140625-5.050782 0-9.144532-4.09375-9.144532-9.140625v-9.144532h-201.140624v27.429688h109.714843c5.046875 0 9.140625 4.09375 9.140625 9.140625 0 5.050781-4.09375 9.144531-9.140625 9.144531h-109.714843v27.429688h100.570312c5.050781 0 9.144531 4.09375 9.144531 9.140625 0 5.050781-4.09375 9.144531-9.144531 9.144531h-100.570312v27.425781h64c5.046874 0 9.140624 4.09375 9.140624 9.144531 0 5.050782-4.09375 9.144532-9.140624 9.144532h-64v27.425781h36.570312c5.050781 0 9.144531 4.09375 9.144531 9.144531 0 5.050782-4.09375 9.140625-9.144531 9.140625h-36.570312v27.429688h18.285156c5.050781 0 9.140625 4.09375 9.140625 9.144531 0 5.046875-4.089844 9.140625-9.140625 9.140625h-18.285156v91.429687c0 5.050782-4.09375 9.144532-9.144532 9.144532h-54.855468c-5.050782 0-9.144532-4.09375-9.144532-9.144532zm0 0" fill="#006DF0"/><path d="m36.570312 36.578125h36.574219v27.429687h-36.574219zm0 0" fill="#006DF0"/><path d="m503.714844 406.160156-2.4375-5.230468c-20.589844-33.640626-64.199219-44.820313-98.433594-25.226563-34.234375 19.589844-46.691406 62.847656-28.113281 97.644531 18.574219 34.796875 61.445312 48.519532 96.773437 30.976563s50.308594-59.992188 33.8125-95.824219c-.652344-.691406-1.191406-1.480469-1.601562-2.339844zm-64.859375-3.867187c-20.195313 0-36.570313 16.375-36.570313 36.570312 0 5.050781-4.09375 9.144531-9.140625 9.144531-5.050781 0-9.144531-4.09375-9.144531-9.144531.03125-30.28125 24.574219-54.824219 54.855469-54.855469 5.050781 0 9.144531 4.09375 9.144531 9.144532 0 5.046875-4.09375 9.140625-9.144531 9.140625zm0 0" fill="#006DF0"/></svg>
